<svg width="594" height="423" viewBox="0 0 594 423" fill="none" xmlns="http://www.w3.org/2000/svg">
<path d="M48.39 213.628L16.39 229.867C8.6188 233.473 6.76584 234.784 2.88989 232.367C-0.986066 229.949 -2.11003 216.867 6.88997 214.867C15.89 212.867 11.6387 202.553 25.89 196.866C33.5547 193.665 37.39 200.366 37.39 200.366C37.39 200.366 41.2144 196.424 44.8899 196.628C48.5655 196.831 56.6189 207.676 48.39 213.628Z" fill="#8BE3F7"/>
<path d="M50.39 214.628L18.39 230.867C10.6188 234.473 8.76584 235.784 4.88989 233.367C1.01393 230.949 -0.110027 217.867 8.88997 215.867C17.89 213.867 13.6387 203.553 27.89 197.866C35.5547 194.665 39.39 201.366 39.39 201.366C39.39 201.366 43.2144 197.424 46.8899 197.628C50.5655 197.831 58.6189 208.676 50.39 214.628Z" fill="#D7F8FF"/>
<path d="M296.834 90.4419L267.186 105.588C259.986 108.952 258.269 110.175 254.678 107.92C251.087 105.665 250.045 93.4629 258.384 91.5974C266.722 89.732 262.784 80.1125 275.988 74.8082C283.089 71.8219 286.643 78.0728 286.643 78.0728C286.643 78.0728 290.186 74.3959 293.592 74.5855C296.997 74.775 304.459 84.8909 296.834 90.4419Z" fill="#8BE3F7"/>
<path d="M298.687 91.3747L269.039 106.521C261.839 109.885 260.122 111.108 256.531 108.853C252.94 106.598 251.898 94.3956 260.237 92.5301C268.576 90.6647 264.637 81.0452 277.841 75.7409C284.942 72.7547 288.496 79.0055 288.496 79.0055C288.496 79.0055 292.039 75.3287 295.445 75.5182C298.85 75.7078 306.312 85.8236 298.687 91.3747Z" fill="#D7F8FF"/>
<path d="M199.078 71.9226L159.349 92.1178C149.7 96.6029 147.4 98.2338 142.588 95.227C137.776 92.2201 136.38 75.9505 147.554 73.4632C158.728 70.9759 153.45 58.15 171.143 51.0776C180.659 47.0959 185.421 55.4303 185.421 55.4303C185.421 55.4303 190.169 50.5279 194.732 50.7806C199.296 51.0334 209.294 64.5212 199.078 71.9226Z" fill="#8BE3F7"/>
<path d="M201.561 73.1662L161.832 93.3615C152.184 97.8466 149.883 99.4775 145.071 96.4706C140.259 93.4637 138.863 77.1941 150.037 74.7068C161.211 72.2196 155.933 59.3936 173.626 52.3212C183.142 48.3395 187.904 56.674 187.904 56.674C187.904 56.674 192.652 51.7715 197.215 52.0243C201.779 52.277 211.777 65.7648 201.561 73.1662Z" fill="#D7F8FF"/>
<path d="M392.39 17.6277L360.39 33.8665C352.619 37.4729 350.766 38.7843 346.89 36.3665C343.014 33.9487 341.89 20.8665 350.89 18.8665C359.89 16.8665 355.639 6.55334 369.89 0.866463C377.555 -2.33516 381.39 4.36648 381.39 4.36648C381.39 4.36648 385.214 0.424477 388.89 0.627707C392.566 0.830936 400.619 11.6763 392.39 17.6277Z" fill="#8BE3F7"/>
<path d="M394.39 18.6277L362.39 34.8665C354.619 38.4729 352.766 39.7843 348.89 37.3665C345.014 34.9487 343.89 21.8665 352.89 19.8665C361.89 17.8665 357.639 7.55334 371.89 1.86646C379.555 -1.33516 383.39 5.36648 383.39 5.36648C383.39 5.36648 387.214 1.42448 390.89 1.62771C394.566 1.83094 402.619 12.6763 394.39 18.6277Z" fill="#D7F8FF"/>
<path d="M116.591 130.961L97.0224 141.059C92.2703 143.301 91.1372 144.117 88.7671 142.613C86.3969 141.11 85.7096 132.975 91.2131 131.732C96.7167 130.488 94.117 124.075 102.832 120.539C107.519 118.548 109.864 122.715 109.864 122.715C109.864 122.715 112.203 120.264 114.45 120.39C116.698 120.517 121.623 127.261 116.591 130.961Z" fill="#8BE3F7"/>
<path d="M117.814 131.583L98.2454 141.681C93.4933 143.923 92.3602 144.739 89.9901 143.235C87.6199 141.732 86.9326 133.597 92.4361 132.353C97.9397 131.11 95.34 124.697 104.055 121.161C108.742 119.17 111.087 123.337 111.087 123.337C111.087 123.337 113.426 120.886 115.673 121.012C117.921 121.139 122.846 127.882 117.814 131.583Z" fill="#D7F8FF"/>
<g filter="url(#filter0_f_15_2)">
<path d="M201.794 354.64L169.836 370.961C162.347 375.123 160.197 375.85 159.871 380.406C159.546 384.963 169.463 393.569 176.375 387.468C183.288 381.367 189.126 390.872 202.109 382.695C209.208 378.381 206.045 371.336 206.045 371.336C206.045 371.336 211.483 370.563 213.481 367.472C215.479 364.38 211.448 351.487 201.794 354.64Z" fill="black" fill-opacity="0.1"/>
</g>
<g filter="url(#filter1_f_15_2)">
<path d="M440.529 227.637L410.838 242.699C403.882 246.542 401.882 247.211 401.593 251.442C401.304 255.672 410.558 263.693 416.972 258.048C423.387 252.403 428.848 261.248 440.905 253.692C447.498 249.706 444.535 243.155 444.535 243.155C444.535 243.155 449.592 242.453 451.443 239.588C453.293 236.723 449.504 224.738 440.529 227.637Z" fill="black" fill-opacity="0.1"/>
</g>
<g filter="url(#filter2_f_15_2)">
<path d="M454.889 358.2L415.184 378.444C405.881 383.606 403.209 384.507 402.809 390.167C402.409 395.827 414.744 406.528 423.329 398.956C431.914 391.384 439.18 403.198 455.309 393.053C464.127 387.7 460.189 378.947 460.189 378.947C460.189 378.947 466.947 377.992 469.428 374.153C471.908 370.314 466.884 354.294 454.889 358.2Z" fill="black" fill-opacity="0.1"/>
</g>
<g filter="url(#filter3_f_15_2)">
<path d="M576.794 206.64L544.836 222.961C537.347 227.123 535.197 227.85 534.872 232.406C534.546 236.963 544.463 245.569 551.376 239.468C558.288 233.367 564.126 242.872 577.109 234.695C584.208 230.381 581.045 223.336 581.045 223.336C581.045 223.336 586.483 222.563 588.481 219.472C590.479 216.38 586.448 203.487 576.794 206.64Z" fill="black" fill-opacity="0.1"/>
</g>
<g filter="url(#filter4_f_15_2)">
<path d="M332.953 382.428L313.275 392.31C308.666 394.833 307.34 395.27 307.161 398.071C306.982 400.872 313.156 406.214 317.399 402.495C321.643 398.777 325.299 404.652 333.286 399.686C337.653 397.067 335.663 392.719 335.663 392.719C335.663 392.719 339.021 392.27 340.241 390.378C341.462 388.486 338.906 380.537 332.953 382.428Z" fill="black" fill-opacity="0.05"/>
<path d="M333.17 381.073L313.492 390.955C308.883 393.478 307.556 393.915 307.378 396.716C307.199 399.517 313.372 404.859 317.616 401.14C321.86 397.422 325.516 403.297 333.502 398.331C337.87 395.712 335.88 391.364 335.88 391.364C335.88 391.364 339.238 390.915 340.458 389.023C341.678 387.132 339.123 379.182 333.17 381.073Z" fill="black" fill-opacity="0.05"/>
</g>
<defs>
<filter id="filter0_f_15_2" x="155.496" y="350.147" width="62.4838" height="45.6379" filterUnits="userSpaceOnUse" color-interpolation-filters="sRGB">
<feFlood flood-opacity="0" result="BackgroundImageFix"/>
<feBlend mode="normal" in="SourceGraphic" in2="BackgroundImageFix" result="shape"/>
<feGaussianBlur stdDeviation="2" result="effect1_foregroundBlur_15_2"/>
</filter>
<filter id="filter1_f_15_2" x="397.25" y="223.188" width="58.6497" height="42.8524" filterUnits="userSpaceOnUse" color-interpolation-filters="sRGB">
<feFlood flood-opacity="0" result="BackgroundImageFix"/>
<feBlend mode="normal" in="SourceGraphic" in2="BackgroundImageFix" result="shape"/>
<feGaussianBlur stdDeviation="2" result="effect1_foregroundBlur_15_2"/>
</filter>
<filter id="filter2_f_15_2" x="398.344" y="353.591" width="75.701" height="54.7221" filterUnits="userSpaceOnUse" color-interpolation-filters="sRGB">
<feFlood flood-opacity="0" result="BackgroundImageFix"/>
<feBlend mode="normal" in="SourceGraphic" in2="BackgroundImageFix" result="shape"/>
<feGaussianBlur stdDeviation="2" result="effect1_foregroundBlur_15_2"/>
</filter>
<filter id="filter3_f_15_2" x="530.496" y="202.147" width="62.4838" height="45.638" filterUnits="userSpaceOnUse" color-interpolation-filters="sRGB">
<feFlood flood-opacity="0" result="BackgroundImageFix"/>
<feBlend mode="normal" in="SourceGraphic" in2="BackgroundImageFix" result="shape"/>
<feGaussianBlur stdDeviation="2" result="effect1_foregroundBlur_15_2"/>
</filter>
<filter id="filter4_f_15_2" x="303.157" y="376.785" width="41.5984" height="30.9828" filterUnits="userSpaceOnUse" color-interpolation-filters="sRGB">
<feFlood flood-opacity="0" result="BackgroundImageFix"/>
<feBlend mode="normal" in="SourceGraphic" in2="BackgroundImageFix" result="shape"/>
<feGaussianBlur stdDeviation="2" result="effect1_foregroundBlur_15_2"/>
</filter>
</defs>
</svg>
