<svg width="750" height="645" viewBox="0 0 750 645" fill="none" xmlns="http://www.w3.org/2000/svg">
<path d="M375 213L0 442L149 523C267.96 452.338 306.135 426.524 375 420.5C466.179 414.882 502.899 410.214 550.5 400C591.725 389.097 610.21 379.926 634 357.5L375 213Z" fill="#88C464"/>
<path d="M633.5 357.5L749.5 416L375 645C375 645 154.474 528.308 149 523C143.526 517.692 271 448 322 431C373 414 376 420 413.5 417.5C451 415 511.019 409.962 548.5 400.5C587.532 391.434 608.131 381.356 633.5 357.5Z" fill="#0D62B2"/>
<path d="M633.5 301.5V357.5C608.818 381.354 590.06 390.111 550.5 400C489.73 413.618 449.532 417.077 371 421C349.905 423.028 336.706 426.719 309 436C265.011 453.214 224.365 476.712 149 523V467C219.214 424.677 260.808 398.656 308.5 379.5C334.687 370.144 348.416 366.875 371 365C441.416 360.973 521.592 350.824 550.5 344C579.408 337.176 612.89 322.615 633.5 301.5Z" fill="#3B9F94"/>
<path d="M349.5 502.541C348.249 503.605 347.645 504.323 347 506.041C347.74 507.747 348.299 508.497 349.5 509.541C351.587 508.79 352.521 508.167 353 506.041C352.578 503.93 351.753 503.21 349.5 502.541Z" fill="#F7B36F"/>
<path d="M349.5 502.541C351.753 503.21 352.578 503.93 353 506.041H365C366.372 504.804 367.122 504.098 368 502.541C368.725 501.364 368.977 500.706 369 499.541C368.982 499.623 368.974 499.159 368.5 499.041C368.026 498.923 365.719 499.004 364 500.041C363.246 500.409 361.301 502.625 360.5 504.041C360.2 504.283 359.994 504.317 359.5 504.041C356.656 502.639 355.499 502.116 352.565 501.525L352 501.541C351.122 501.68 350.573 501.892 349.5 502.541Z" fill="#FFEA80"/>
<path d="M352.565 501.525C355.499 502.116 356.656 502.639 359.5 504.041C360.195 503.427 360.265 503 359.565 502.025C358.98 501.515 358.527 501.306 357.565 501.025C357.454 499.774 357.322 499.19 356.565 499.025C355.796 498.975 355.358 499.081 354.565 499.525C353.668 499.954 353.221 500.362 352.565 501.525Z" fill="#FFC34D"/>
<path d="M353 506.041C352.521 508.167 351.587 508.79 349.5 509.541C350.279 510.151 350.833 510.359 352 510.541C352.416 510.588 352.637 510.592 353 510.541C354.814 510.076 355.802 509.754 357.5 509.041C359.344 507.993 360.192 507.587 360.5 508.041C361.393 509.806 361.847 510.545 362.5 511.041C363.506 511.723 363.589 511.969 365 512.541C366.246 513.022 367.415 513.111 368.5 513.041C368.831 513.017 368.99 512.97 369 512.541C368.946 511.204 368.742 510.54 368 509.541C366.891 507.838 366.228 507.106 365 506.041H353Z" fill="#FFC34D"/>
<path d="M353 510.541C353.682 510.889 353.608 511.145 354.5 511.541C355.179 511.818 356.506 511.812 357 511.541C358.025 510.974 358.303 510.775 358.5 510.541C358.633 510.312 358.619 510.193 358 510.041C357.268 509.671 357.274 509.448 357.5 509.041C355.802 509.754 354.814 510.076 353 510.541Z" fill="#FF9933"/>
<path d="M351 505.5C351 505.776 350.776 506 350.5 506C350.224 506 350 505.776 350 505.5C350 505.224 350.224 505 350.5 505C350.776 505 351 505.224 351 505.5Z" fill="black"/>
<circle cx="345.5" cy="503.5" r="0.5" fill="#8BE3F7" fill-opacity="0.5"/>
<circle cx="347" cy="495" r="1" fill="#8BE3F7" fill-opacity="0.5"/>
<circle cx="344.5" cy="487.5" r="1.5" fill="#8BE3F7" fill-opacity="0.5"/>
<circle cx="347" cy="478" r="2" fill="#8BE3F7" fill-opacity="0.5"/>
<circle cx="342.5" cy="469.5" r="2.5" fill="#8BE3F7" fill-opacity="0.5"/>
<path d="M750 366.5V416L375 645V590L750 366.5Z" fill="#1B6296" fill-opacity="0.7"/>
<path d="M149 467V522.5L375 645V590L149 467Z" fill="#3F8CC0" fill-opacity="0.7"/>
<path d="M634 301.5L750 366.5L375 590L149 467C243.155 409.92 283.103 387.741 318 376C335.3 370.552 345.095 367.97 363 365.5C460.466 359.181 498.9 354.25 550.5 344C591.171 332.256 609.794 323.155 634 301.5Z" fill="#6AB8DF" fill-opacity="0.5"/>
<path d="M149 467L0 386V442.5L149 523V467Z" fill="#82BD5E"/>
<path d="M375 157L0 386L149 467C267.96 396.338 306.135 370.524 375 364.5C466.179 358.882 502.899 354.214 550.5 344C591.725 333.097 610.21 323.926 634 301.5L375 157Z" fill="#88C464"/>
<path d="M375 157C375 157 252.5 231.19 235 242.5C217.5 253.81 366.543 252.005 435.514 296.5C504.486 340.995 580.137 287.503 575.5 269L375 157Z" fill="#65AB3A"/>
<path d="M354.015 0L387.515 25.5L363.515 54.5L330.015 41.5L354.015 0Z" fill="#81BB89"/>
<path d="M330.015 41.5L316.515 168L305.015 201L337.515 222L376.015 121.5L363.515 54.5L330.015 41.5Z" fill="#81C47F"/>
<path d="M387.515 25.5L400.015 175.5L337.515 222L376.015 121.5L363.515 54.5L387.515 25.5Z" fill="#43915F"/>
<path d="M298.515 148L291.015 166.5L287.515 190.5L280.015 222.5L298.515 237L307.515 181.5L298.515 148Z" fill="#81C47F"/>
<path d="M298.515 148L319.515 160L337.515 226.5L323.515 235L298.515 237L307.515 181.5L298.515 148Z" fill="#43915F"/>
<path d="M376.015 225L402.515 36L442.515 10L434.515 138.5L438.015 233L402.515 240L376.015 225Z" fill="#81C47F"/>
<path d="M442.015 10L456.515 36L467.515 225.5L437.515 233L434.015 138.5L442.015 10Z" fill="#43915F"/>
<path d="M414 101L378.5 173.5L361 229L393.5 261L414 185.5V101Z" fill="#81C47F" stroke="#43915F"/>
<path d="M414 100L439.015 158.5L453.515 241.5L393.5 261L414 185.5V100Z" fill="#43915F"/>
<path d="M494.5 123.5L470 158.5L454 264L478 274.5V239L488.5 213L502.5 189L494.5 123.5Z" fill="#81C47F"/>
<path d="M494.5 123.5L521.5 112L511 259.5L478 274.5V239L488.5 213L502.5 189L494.5 123.5Z" fill="#43915F"/>
<path d="M521.5 112L538.5 101.5L542.5 147L536 205L542.5 273L511 259.5L521.5 112Z" fill="#81C47F"/>
<path d="M538.5 101.5L568 115V266.5L542.5 273L536 205L542.5 147L538.5 101.5Z" fill="#43915F"/>
<path d="M507 205.5L489.5 275.5L502 295L517 247.5L507 205.5Z" fill="#81C47F"/>
<path d="M507 206.5L529 215.5L540 284.5L502 294.5L517 247.5L507 206.5Z" fill="#43915F"/>
<path d="M206.62 283.163C205.784 283.866 205.809 284.746 205.69 285.954C205.647 286.984 206.708 287.352 207.084 287.814L228 292L212.197 281.302C212.197 281.302 209.873 280.837 208.944 281.302C208.014 281.767 207.455 282.459 206.62 283.163Z" fill="black" fill-opacity="0.05"/>
<path d="M197.789 276.186L195 273.395L201.507 252L197.789 276.186Z" fill="#2E8E40"/>
<path d="M197.789 276.186L201.507 252L205.69 276.186H197.789Z" fill="#2C883D"/>
<path d="M205.69 276.186L201.507 252L208.479 273.395L205.69 276.186Z" fill="#267434"/>
<path d="M200.577 276.186H202.437V280.837H200.577V276.186Z" fill="#7E3500"/>
<path d="M200.577 280.837L206.155 283.628L207.084 282.698L202.437 280.372L200.577 280.837Z" fill="black" fill-opacity="0.05"/>
<path d="M234.507 260.709C233.823 261.29 233.844 262.015 233.746 263.012C233.711 263.861 234.579 264.165 234.887 264.547L252 268L239.07 259.174C239.07 259.174 237.169 258.791 236.408 259.174C235.648 259.558 235.191 260.129 234.507 260.709Z" fill="black" fill-opacity="0.05"/>
<path d="M227.282 254.954L225 252.651L230.324 235L227.282 254.954Z" fill="#2E8E40"/>
<path d="M227.282 254.954L230.324 235L233.746 254.954H227.282Z" fill="#2C883D"/>
<path d="M233.746 254.954L230.324 235L236.028 252.651L233.746 254.954Z" fill="#267434"/>
<path d="M229.563 254.954H231.085V258.791H229.563V254.954Z" fill="#7E3500"/>
<path d="M229.563 258.791L234.127 261.093L234.887 260.326L231.085 258.407L229.563 258.791Z" fill="black" fill-opacity="0.05"/>
<path d="M224 316L265 293.196L265 268L224 290.804L224 316Z" fill="#F1EAE1"/>
<path d="M252 330L291 307.272V282L252 304.728V330Z" fill="#CCD7CB"/>
<path d="M224 291L250 304L237.5 280.5L224 291Z" fill="#F1EAE1"/>
<path d="M224 316.519L252 330V304.963L224 291V316.519Z" fill="#F1EAE1"/>
<path d="M250.982 306L295 281.003L279.982 255L237 280L250.982 306Z" fill="#E45631"/>
<path d="M237 280L222 291.5L224 291L237.5 280.5L237 280Z" fill="#E45631"/>
<path d="M232 320.174V302L239.5 305.674V323.848L232 320.174Z" fill="#7E3500"/>
<path d="M234 312.329V306.674L237 308.019V313.674L234 312.329Z" fill="#649EAF"/>
<path d="M268 313L279 307V297.5L268 303.625V313Z" fill="#649EAF" stroke="white"/>
<path d="M273.5 301V309.5" stroke="white" stroke-linecap="square"/>
<path d="M268.26 308.11L278.77 302.843" stroke="white" stroke-linecap="square"/>
<path d="M252 330V332L221.5 317L224 316.5L252 330Z" fill="#DDCB88"/>
<path d="M252 330V332L293.5 307H291L252 330Z" fill="#DDCB88"/>
<path d="M291 307H293.5L291 306V307Z" fill="#DDCB88"/>
<path d="M221.5 317L224 316.5V315.5L221.5 317Z" fill="#DDCB88"/>
<path d="M229 320.5C226.64 322.362 225.205 323.218 222.5 324.5C215.981 326.319 212.398 326.351 206 326.5C194.324 326.137 189 325.5 179.5 323.5C166.555 320.83 159.42 319.113 147 315.5C135.5 313 129.462 313.57 118.5 313.5L110.5 318.5C124.012 318.251 131.43 318.251 144.5 322C156.449 325.759 163.702 327.685 177 331C187 333.5 193.708 334.233 207 335.5C214.937 335.246 219.124 334.637 226 332.5C231.35 330.009 234.19 328.465 239 325.5L229 320.5Z" fill="#EFE692"/>
<g filter="url(#filter0_f_10_7)">
<path d="M252 329.966L297 346.5L335.5 322L292.258 307L252 329.966Z" fill="black" fill-opacity="0.1"/>
</g>
<g filter="url(#filter1_f_10_7)">
<path d="M403 224L389 226.5L371 238.5L337.5 226.5L323.5 235L298.5 237L382 250.5L389 238.5L403 224Z" fill="black" fill-opacity="0.1"/>
</g>
<g filter="url(#filter2_f_10_7)">
<path d="M337.5 222L361 228.5L366.5 210L370.5 197L337.5 222Z" fill="black" fill-opacity="0.1"/>
</g>
<g filter="url(#filter3_f_10_7)">
<path d="M393.5 261L465 283.5L542.5 317.5L523 289L502 294.5L510 270L495 253L491 268.5L478.5 274.5V239.5L471 229.5L459.5 227.5L451.5 229.5L453.5 241.5L393.5 261Z" fill="black" fill-opacity="0.1"/>
</g>
<path d="M478 274.5L489.5 275.5L491.5 268L478 274.5Z" fill="black" fill-opacity="0.1"/>
<g filter="url(#filter4_f_10_7)">
<path d="M534.5 306L551.5 312L568.5 326.5L570.5 304L540 284.5L523 289L534.5 306Z" fill="black" fill-opacity="0.1"/>
</g>
<g filter="url(#filter5_f_10_7)">
<path d="M540 284.5L559.5 292.5L575 297L591 312.5L611.5 314L632 315.5V301L568 266L542.5 273L538 271L540 284.5Z" fill="black" fill-opacity="0.1"/>
</g>
<path d="M264.141 237.512C263.052 238.426 263.085 239.57 262.93 241.14C262.874 242.479 264.255 242.958 264.746 243.558L292 249L271.408 235.093C271.408 235.093 268.38 234.488 267.169 235.093C265.958 235.698 265.23 236.597 264.141 237.512Z" fill="black" fill-opacity="0.05"/>
<path d="M252.634 228.442L249 224.814L257.479 197L252.634 228.442Z" fill="#2E8E40"/>
<path d="M252.634 228.442L257.479 197L262.93 228.442H252.634Z" fill="#2C883D"/>
<path d="M262.93 228.442L257.479 197L266.563 224.814L262.93 228.442Z" fill="#267434"/>
<path d="M256.268 228.442H258.69V234.488H256.268V228.442Z" fill="#7E3500"/>
<path d="M256.268 234.488L263.535 238.116L264.746 236.907L258.69 233.884L256.268 234.488Z" fill="black" fill-opacity="0.05"/>
<path d="M333.634 304.802C333.229 305.136 333.241 305.554 333.183 306.128C333.162 306.617 333.676 306.792 333.859 307.012L344 309L336.338 303.919C336.338 303.919 335.211 303.698 334.761 303.919C334.31 304.14 334.039 304.468 333.634 304.802Z" fill="black" fill-opacity="0.05"/>
<path d="M329.352 301.488L328 300.163L331.155 290L329.352 301.488Z" fill="#2E8E40"/>
<path d="M329.352 301.488L331.155 290L333.183 301.488H329.352Z" fill="#2C883D"/>
<path d="M333.183 301.488L331.155 290L334.535 300.163L333.183 301.488Z" fill="#267434"/>
<path d="M330.704 301.488H331.606V303.698H330.704V301.488Z" fill="#7E3500"/>
<path d="M330.704 303.698L333.408 305.023L333.859 304.581L331.606 303.477L330.704 303.698Z" fill="black" fill-opacity="0.05"/>
<path d="M560.155 295.151C559.497 295.696 559.516 296.378 559.423 297.314C559.389 298.112 560.224 298.398 560.521 298.756L577 302L564.549 293.709C564.549 293.709 562.718 293.349 561.986 293.709C561.254 294.07 560.813 294.606 560.155 295.151Z" fill="black" fill-opacity="0.05"/>
<path d="M553.197 289.744L551 287.581L556.127 271L553.197 289.744Z" fill="#2E8E40"/>
<path d="M553.197 289.744L556.127 271L559.423 289.744H553.197Z" fill="#2C883D"/>
<path d="M559.423 289.744L556.127 271L561.62 287.581L559.423 289.744Z" fill="#267434"/>
<path d="M555.394 289.744H556.859V293.349H555.394V289.744Z" fill="#7E3500"/>
<path d="M555.394 293.349L559.789 295.512L560.521 294.791L556.859 292.988L555.394 293.349Z" fill="black" fill-opacity="0.05"/>
<path d="M350.437 254.954C349.398 255.833 349.429 256.933 349.282 258.442C349.228 259.729 350.546 260.19 351.014 260.767L377 266L357.366 252.628C357.366 252.628 354.479 252.046 353.324 252.628C352.169 253.209 351.475 254.074 350.437 254.954Z" fill="black" fill-opacity="0.05"/>
<path d="M339.465 246.233L336 242.744L344.085 216L339.465 246.233Z" fill="#2E8E40"/>
<path d="M339.465 246.233L344.085 216L349.282 246.233H339.465Z" fill="#2C883D"/>
<path d="M349.282 246.233L344.085 216L352.746 242.744L349.282 246.233Z" fill="#267434"/>
<path d="M342.93 246.233H345.239V252.047H342.93V246.233Z" fill="#7E3500"/>
<path d="M342.93 252.047L349.859 255.535L351.014 254.372L345.239 251.465L342.93 252.047Z" fill="black" fill-opacity="0.05"/>
<path d="M351.93 229.244C351.575 229.543 351.586 229.917 351.535 230.43C351.517 230.868 351.967 231.025 352.127 231.221L361 233L354.296 228.453C354.296 228.453 353.31 228.256 352.916 228.453C352.521 228.651 352.284 228.945 351.93 229.244Z" fill="black" fill-opacity="0.05"/>
<path d="M348.183 226.279L347 225.093L349.761 216L348.183 226.279Z" fill="#2E8E40"/>
<path d="M348.183 226.279L349.761 216L351.535 226.279H348.183Z" fill="#2C883D"/>
<path d="M351.535 226.279L349.761 216L352.718 225.093L351.535 226.279Z" fill="#267434"/>
<path d="M349.366 226.279H350.155V228.256H349.366V226.279Z" fill="#7E3500"/>
<path d="M349.366 228.256L351.732 229.442L352.127 229.047L350.155 228.058L349.366 228.256Z" fill="black" fill-opacity="0.05"/>
<path d="M384.916 299.163C384.13 299.866 384.154 300.746 384.042 301.954C384.002 302.984 384.998 303.352 385.352 303.814L405 308L390.155 297.302C390.155 297.302 387.972 296.837 387.099 297.302C386.225 297.767 385.701 298.459 384.916 299.163Z" fill="black" fill-opacity="0.05"/>
<path d="M376.62 292.186L374 289.395L380.113 268L376.62 292.186Z" fill="#2E8E40"/>
<path d="M376.62 292.186L380.113 268L384.042 292.186H376.62Z" fill="#2C883D"/>
<path d="M384.042 292.186L380.113 268L386.662 289.395L384.042 292.186Z" fill="#267434"/>
<path d="M379.239 292.186H380.986V296.837H379.239V292.186Z" fill="#7E3500"/>
<path d="M379.239 296.837L384.479 299.628L385.352 298.698L380.986 296.372L379.239 296.837Z" fill="black" fill-opacity="0.05"/>
<path d="M421.746 291.035C421.189 291.51 421.206 292.104 421.127 292.919C421.098 293.614 421.805 293.863 422.056 294.174L436 297L425.465 289.779C425.465 289.779 423.916 289.465 423.296 289.779C422.676 290.093 422.304 290.56 421.746 291.035Z" fill="black" fill-opacity="0.05"/>
<path d="M415.859 286.326L414 284.442L418.338 270L415.859 286.326Z" fill="#2E8E40"/>
<path d="M415.859 286.326L418.338 270L421.127 286.326H415.859Z" fill="#2C883D"/>
<path d="M421.127 286.326L418.338 270L422.986 284.442L421.127 286.326Z" fill="#267434"/>
<path d="M417.718 286.326H418.958V289.465H417.718V286.326Z" fill="#7E3500"/>
<path d="M417.718 289.465L421.437 291.349L422.056 290.721L418.958 289.151L417.718 289.465Z" fill="black" fill-opacity="0.05"/>
<path d="M438.916 279.826C438.13 280.476 438.154 281.29 438.042 282.407C438.002 283.36 438.998 283.701 439.352 284.128L459 288L444.155 278.105C444.155 278.105 441.972 277.674 441.099 278.105C440.225 278.535 439.701 279.175 438.916 279.826Z" fill="black" fill-opacity="0.05"/>
<path d="M430.62 273.372L428 270.791L434.113 251L430.62 273.372Z" fill="#2E8E40"/>
<path d="M430.62 273.372L434.113 251L438.042 273.372H430.62Z" fill="#2C883D"/>
<path d="M438.042 273.372L434.113 251L440.662 270.791L438.042 273.372Z" fill="#267434"/>
<path d="M433.239 273.372H434.986V277.674H433.239V273.372Z" fill="#7E3500"/>
<path d="M433.239 277.674L438.479 280.256L439.352 279.395L434.986 277.244L433.239 277.674Z" fill="black" fill-opacity="0.05"/>
<g opacity="0.5">
<path d="M490.394 314.477C489.863 314.916 489.879 315.466 489.803 316.221C489.775 316.865 490.45 317.095 490.69 317.384L504 320L493.944 313.314C493.944 313.314 492.465 313.023 491.873 313.314C491.282 313.605 490.926 314.037 490.394 314.477Z" fill="black" fill-opacity="0.05"/>
<path d="M484.775 310.116L483 308.372L487.141 295L484.775 310.116Z" fill="#2E8E40"/>
<path d="M484.775 310.116L487.141 295L489.803 310.116H484.775Z" fill="#2C883D"/>
<path d="M489.803 310.116L487.141 295L491.577 308.372L489.803 310.116Z" fill="#267434"/>
<path d="M486.549 310.116H487.732V313.023H486.549V310.116Z" fill="#7E3500"/>
<path d="M486.549 313.023L490.099 314.767L490.69 314.186L487.732 312.733L486.549 313.023Z" fill="black" fill-opacity="0.05"/>
</g>
<path d="M324.394 272.256C323.863 272.713 323.879 273.285 323.803 274.07C323.775 274.739 324.45 274.979 324.69 275.279L338 278L327.944 271.047C327.944 271.047 326.465 270.744 325.873 271.047C325.282 271.349 324.926 271.799 324.394 272.256Z" fill="black" fill-opacity="0.05"/>
<path d="M318.775 267.721L317 265.907L321.141 252L318.775 267.721Z" fill="#2E8E40"/>
<path d="M318.775 267.721L321.141 252L323.803 267.721H318.775Z" fill="#2C883D"/>
<path d="M323.803 267.721L321.141 252L325.577 265.907L323.803 267.721Z" fill="#267434"/>
<path d="M320.549 267.721H321.732V270.744H320.549V267.721Z" fill="#7E3500"/>
<path d="M320.549 270.744L324.099 272.558L324.69 271.954L321.732 270.442L320.549 270.744Z" fill="black" fill-opacity="0.05"/>
<path d="M96.0141 345.419C94.6467 346.579 94.6876 348.031 94.493 350.023C94.4227 351.723 96.1579 352.331 96.7746 353.093L131 360L105.141 342.349C105.141 342.349 101.338 341.581 99.8169 342.349C98.2958 343.116 97.3816 344.258 96.0141 345.419Z" fill="black" fill-opacity="0.05"/>
<path d="M81.5634 333.907L77 329.302L87.6479 294L81.5634 333.907Z" fill="#2E8E40"/>
<path d="M81.5634 333.907L87.6479 294L94.4929 333.907H81.5634Z" fill="#2C883D"/>
<path d="M94.4929 333.907L87.6479 294L99.0563 329.302L94.4929 333.907Z" fill="#267434"/>
<path d="M86.1268 333.907H89.169V341.581H86.1268V333.907Z" fill="#7E3500"/>
<path d="M86.1268 341.581L95.2535 346.186L96.7746 344.651L89.169 340.814L86.1268 341.581Z" fill="black" fill-opacity="0.05"/>
<path d="M173.437 290.174C172.398 291.036 172.429 292.114 172.282 293.593C172.228 294.855 173.546 295.306 174.014 295.872L200 301L180.366 287.895C180.366 287.895 177.479 287.326 176.324 287.895C175.169 288.465 174.475 289.313 173.437 290.174Z" fill="black" fill-opacity="0.05"/>
<path d="M162.465 281.628L159 278.209L167.085 252L162.465 281.628Z" fill="#2E8E40"/>
<path d="M162.465 281.628L167.085 252L172.282 281.628H162.465Z" fill="#2C883D"/>
<path d="M172.282 281.628L167.085 252L175.746 278.209L172.282 281.628Z" fill="#267434"/>
<path d="M165.93 281.628H168.239V287.326H165.93V281.628Z" fill="#7E3500"/>
<path d="M165.93 287.326L172.859 290.744L174.014 289.605L168.239 286.756L165.93 287.326Z" fill="black" fill-opacity="0.05"/>
<path d="M169.437 316.174C168.398 317.036 168.429 318.114 168.282 319.593C168.228 320.855 169.546 321.306 170.014 321.872L196 327L176.366 313.895C176.366 313.895 173.479 313.326 172.324 313.895C171.169 314.465 170.475 315.313 169.437 316.174Z" fill="black" fill-opacity="0.05"/>
<path d="M158.465 307.628L155 304.209L163.085 278L158.465 307.628Z" fill="#2E8E40"/>
<path d="M158.465 307.628L163.085 278L168.282 307.628H158.465Z" fill="#2C883D"/>
<path d="M168.282 307.628L163.085 278L171.746 304.209L168.282 307.628Z" fill="#267434"/>
<path d="M161.93 307.628H164.239V313.326H161.93V307.628Z" fill="#7E3500"/>
<path d="M161.93 313.326L168.859 316.744L170.014 315.605L164.239 312.756L161.93 313.326Z" fill="black" fill-opacity="0.05"/>
<path d="M129.437 336.174C128.398 337.036 128.429 338.114 128.282 339.593C128.228 340.855 129.546 341.306 130.014 341.872L156 347L136.366 333.895C136.366 333.895 133.479 333.326 132.324 333.895C131.169 334.465 130.475 335.313 129.437 336.174Z" fill="black" fill-opacity="0.05"/>
<path d="M118.465 327.628L115 324.209L123.085 298L118.465 327.628Z" fill="#2E8E40"/>
<path d="M118.465 327.628L123.085 298L128.282 327.628H118.465Z" fill="#2C883D"/>
<path d="M128.282 327.628L123.085 298L131.746 324.209L128.282 327.628Z" fill="#267434"/>
<path d="M121.93 327.628H124.239V333.326H121.93V327.628Z" fill="#7E3500"/>
<path d="M121.93 333.326L128.859 336.744L130.014 335.605L124.239 332.756L121.93 333.326Z" fill="black" fill-opacity="0.05"/>
<path d="M170.62 338.163C169.784 338.866 169.809 339.746 169.69 340.954C169.647 341.984 170.708 342.352 171.084 342.814L192 347L176.197 336.302C176.197 336.302 173.873 335.837 172.944 336.302C172.014 336.767 171.455 337.459 170.62 338.163Z" fill="black" fill-opacity="0.05"/>
<path d="M161.789 331.186L159 328.395L165.507 307L161.789 331.186Z" fill="#2E8E40"/>
<path d="M161.789 331.186L165.507 307L169.69 331.186H161.789Z" fill="#2C883D"/>
<path d="M169.69 331.186L165.507 307L172.479 328.395L169.69 331.186Z" fill="#267434"/>
<path d="M164.577 331.186H166.437V335.837H164.577V331.186Z" fill="#7E3500"/>
<path d="M164.577 335.837L170.155 338.628L171.084 337.698L166.437 335.372L164.577 335.837Z" fill="black" fill-opacity="0.05"/>
<path d="M139.099 381.814C138.516 382.306 138.534 382.922 138.451 383.767C138.421 384.488 139.16 384.746 139.423 385.07L154 388L142.986 380.512C142.986 380.512 141.366 380.186 140.718 380.512C140.07 380.837 139.681 381.322 139.099 381.814Z" fill="black" fill-opacity="0.05"/>
<path d="M132.944 376.93L131 374.977L135.535 360L132.944 376.93Z" fill="#2E8E40"/>
<path d="M132.944 376.93L135.535 360L138.451 376.93H132.944Z" fill="#2C883D"/>
<path d="M138.451 376.93L135.535 360L140.394 374.977L138.451 376.93Z" fill="#267434"/>
<path d="M134.887 376.93H136.183V380.186H134.887V376.93Z" fill="#7E3500"/>
<path d="M134.887 380.186L138.775 382.14L139.423 381.488L136.183 379.86L134.887 380.186Z" fill="black" fill-opacity="0.05"/>
<path d="M89.8592 404.488C89.1501 405.086 89.1713 405.834 89.0704 406.86C89.034 407.736 89.9337 408.049 90.2535 408.442L108 412L94.5916 402.907C94.5916 402.907 92.6197 402.512 91.831 402.907C91.0423 403.302 90.5682 403.89 89.8592 404.488Z" fill="black" fill-opacity="0.05"/>
<path d="M82.3662 398.558L80 396.186L85.5211 378L82.3662 398.558Z" fill="#2E8E40"/>
<path d="M82.3662 398.558L85.5211 378L89.0704 398.558H82.3662Z" fill="#2C883D"/>
<path d="M89.0704 398.558L85.5211 378L91.4366 396.186L89.0704 398.558Z" fill="#267434"/>
<path d="M84.7324 398.558H86.3099V402.512H84.7324V398.558Z" fill="#7E3500"/>
<path d="M84.7324 402.512L89.4648 404.884L90.2535 404.093L86.3099 402.116L84.7324 402.512Z" fill="black" fill-opacity="0.05"/>
<path d="M53.6197 379.163C52.7841 379.866 52.8091 380.746 52.6902 381.954C52.6472 382.984 53.7076 383.352 54.0845 383.814L75 388L59.1972 377.302C59.1972 377.302 56.8733 376.837 55.9437 377.302C55.0141 377.767 54.4554 378.459 53.6197 379.163Z" fill="black" fill-opacity="0.05"/>
<path d="M44.7887 372.186L42 369.395L48.507 348L44.7887 372.186Z" fill="#2E8E40"/>
<path d="M44.7887 372.186L48.507 348L52.6901 372.186H44.7887Z" fill="#2C883D"/>
<path d="M52.6901 372.186L48.507 348L55.4789 369.395L52.6901 372.186Z" fill="#267434"/>
<path d="M47.5775 372.186H49.4366V376.837H47.5775V372.186Z" fill="#7E3500"/>
<path d="M47.5775 376.837L53.1549 379.628L54.0845 378.698L49.4366 376.372L47.5775 376.837Z" fill="black" fill-opacity="0.05"/>
<defs>
<filter id="filter0_f_10_7" x="248" y="303" width="91.5" height="47.5" filterUnits="userSpaceOnUse" color-interpolation-filters="sRGB">
<feFlood flood-opacity="0" result="BackgroundImageFix"/>
<feBlend mode="normal" in="SourceGraphic" in2="BackgroundImageFix" result="shape"/>
<feGaussianBlur stdDeviation="2" result="effect1_foregroundBlur_10_7"/>
</filter>
<filter id="filter1_f_10_7" x="294.5" y="220" width="112.5" height="34.5" filterUnits="userSpaceOnUse" color-interpolation-filters="sRGB">
<feFlood flood-opacity="0" result="BackgroundImageFix"/>
<feBlend mode="normal" in="SourceGraphic" in2="BackgroundImageFix" result="shape"/>
<feGaussianBlur stdDeviation="2" result="effect1_foregroundBlur_10_7"/>
</filter>
<filter id="filter2_f_10_7" x="333.5" y="193" width="41" height="39.5" filterUnits="userSpaceOnUse" color-interpolation-filters="sRGB">
<feFlood flood-opacity="0" result="BackgroundImageFix"/>
<feBlend mode="normal" in="SourceGraphic" in2="BackgroundImageFix" result="shape"/>
<feGaussianBlur stdDeviation="2" result="effect1_foregroundBlur_10_7"/>
</filter>
<filter id="filter3_f_10_7" x="389.5" y="223.5" width="157" height="98" filterUnits="userSpaceOnUse" color-interpolation-filters="sRGB">
<feFlood flood-opacity="0" result="BackgroundImageFix"/>
<feBlend mode="normal" in="SourceGraphic" in2="BackgroundImageFix" result="shape"/>
<feGaussianBlur stdDeviation="2" result="effect1_foregroundBlur_10_7"/>
</filter>
<filter id="filter4_f_10_7" x="519" y="280.5" width="55.5" height="50" filterUnits="userSpaceOnUse" color-interpolation-filters="sRGB">
<feFlood flood-opacity="0" result="BackgroundImageFix"/>
<feBlend mode="normal" in="SourceGraphic" in2="BackgroundImageFix" result="shape"/>
<feGaussianBlur stdDeviation="2" result="effect1_foregroundBlur_10_7"/>
</filter>
<filter id="filter5_f_10_7" x="534" y="262" width="102" height="57.5" filterUnits="userSpaceOnUse" color-interpolation-filters="sRGB">
<feFlood flood-opacity="0" result="BackgroundImageFix"/>
<feBlend mode="normal" in="SourceGraphic" in2="BackgroundImageFix" result="shape"/>
<feGaussianBlur stdDeviation="2" result="effect1_foregroundBlur_10_7"/>
</filter>
</defs>
</svg>
