<svg width="120" height="120" viewBox="0 0 120 120" fill="none" xmlns="http://www.w3.org/2000/svg">
<circle cx="60" cy="60" r="60" fill="#F6F6F6" fill-opacity="0.1"/>
<circle cx="60" cy="60" r="50" fill="#F6F6F6" fill-opacity="0.3"/>
<circle cx="60" cy="60" r="37" fill="#F6F6F6" fill-opacity="0.5"/>
<circle cx="60" cy="60" r="25" fill="#F7F7F7" fill-opacity="0.4"/>
<path d="M81.0948 73.4168C79.0803 76.5841 76.3784 79.2572 73.1896 81.2376C70.0009 83.2179 66.4071 84.4548 62.675 84.8565C58.9428 85.2581 55.1682 84.8142 51.631 83.5576C48.0939 82.301 44.8852 80.2641 42.2429 77.5979C39.6006 74.9317 37.5927 71.7048 36.368 68.1565C35.1433 64.6082 34.7334 60.8297 35.1686 57.1013C35.6038 53.373 36.8731 49.7905 38.8821 46.6197C40.8911 43.4489 43.5883 40.7712 46.7737 38.7853C42.568 53.9444 45.6303 60.718 52.5 68.1565C59.3697 75.595 69.9975 75.8335 81.0948 73.4168Z" fill="#F6F6F6"/>
</svg>
