<svg width="98" height="44" viewBox="0 0 98 44" fill="none" xmlns="http://www.w3.org/2000/svg">
<rect x="63.0276" width="8.95097" height="1.79019" transform="rotate(45 63.0276 0)" fill="#8BE3F7"/>
<rect x="75.559" y="12.5314" width="13.4265" height="1.79019" transform="rotate(45 75.559 12.5314)" fill="#8BE3F7"/>
<rect x="91.6707" y="28.6431" width="8.95097" height="1.79019" transform="rotate(45 91.6707 28.6431)" fill="#8BE3F7"/>
<rect x="37.0698" y="7.16078" width="8.95097" height="1.79019" transform="rotate(45 37.0698 7.16078)" fill="#8BE3F7"/>
<rect x="49.6011" y="19.6921" width="13.4265" height="1.79019" transform="rotate(45 49.6011 19.6921)" fill="#8BE3F7"/>
<rect x="65.7129" y="35.8039" width="8.95097" height="1.79019" transform="rotate(45 65.7129 35.8039)" fill="#8BE3F7"/>
<rect x="1.26587" y="3.58038" width="8.95097" height="1.79019" transform="rotate(45 1.26587 3.58038)" fill="#8BE3F7"/>
<rect x="13.7972" y="16.1118" width="13.4265" height="1.79019" transform="rotate(45 13.7972 16.1118)" fill="#8BE3F7"/>
<rect x="29.909" y="32.2235" width="8.95097" height="1.79019" transform="rotate(45 29.909 32.2235)" fill="#8BE3F7"/>
</svg>
