<svg width="39" height="33" viewBox="0 0 39 33" fill="none" xmlns="http://www.w3.org/2000/svg">
<mask id="path-1-inside-1_39_45" fill="white">
<path d="M9.58547 0.261957C9.51539 0.406482 9.3143 0.818982 9.14062 1.17729L8.82984 1.83066L9.88711 3.58002C10.4691 4.54353 10.9535 5.35949 10.9596 5.3896C10.9748 5.4438 10.92 5.44681 9.00047 5.45283L7.02305 5.46187L6.52641 6.38021C6.25523 6.88604 6.03586 7.31962 6.045 7.34672C6.05109 7.37382 6.25219 7.72008 6.48984 8.11752L6.92555 8.84015L7.40086 8.85822C7.66289 8.87026 9.04312 8.90639 10.466 8.93951C11.892 8.97564 13.0833 9.00876 13.1198 9.0178C13.1686 9.02683 13.6012 9.71935 14.8352 11.7578C15.7828 13.3204 16.4775 14.4977 16.4623 14.5128C16.447 14.5278 15.0028 14.5369 13.1473 14.5339L9.85969 14.5248L8.40633 12.101C7.60805 10.7672 6.93773 9.65913 6.91945 9.63805C6.89203 9.61095 6.62391 9.60192 5.77383 9.60192H4.66172L4.26562 10.3848C4.0493 10.8153 3.86953 11.1797 3.86953 11.1947C3.86953 11.2098 4.30828 11.9474 4.84453 12.8327C5.71898 14.2779 5.84086 14.4917 5.81344 14.5158C5.80734 14.5218 4.74094 14.5308 3.44297 14.5399L1.08469 14.5549L0.542344 15.41C0.24375 15.8797 0 16.2772 0 16.2922C0 16.3073 0.0304687 16.3585 0.0639844 16.4067C0.100547 16.4548 0.344297 16.8493 0.606328 17.2859L1.08469 18.0777L3.29062 18.0928C5.22844 18.1048 5.49961 18.1139 5.49656 18.153C5.49352 18.1771 5.07914 18.8214 4.57031 19.5832L3.65016 20.9683L4.02187 21.6909C4.22906 22.0883 4.44234 22.4978 4.50023 22.6002L4.60383 22.7869L5.63062 22.7959C6.1943 22.8019 6.67266 22.8019 6.68789 22.7959C6.70617 22.7929 7.38258 21.7391 8.19305 20.4564C9.00351 19.1737 9.68601 18.1199 9.71039 18.1079C9.73476 18.0988 11.243 18.0928 13.0589 18.0928C15.9291 18.0928 16.3648 18.0988 16.38 18.138C16.3952 18.1771 13.4337 23.1241 13.324 23.2415C13.2874 23.2807 12.9127 23.2867 10.3045 23.2867H7.32773L6.80367 24.1448C6.51726 24.6175 6.26437 25.03 6.24609 25.0662C6.21258 25.1234 6.26742 25.2077 6.72445 25.849L7.23633 26.5686L9.23203 26.5837C11.0449 26.5987 11.2277 26.6017 11.2247 26.6469C11.2216 26.674 10.7037 27.5472 10.073 28.5829C9.44226 29.6217 8.92734 30.4949 8.92734 30.522C8.93039 30.5491 9.15891 30.9646 9.44226 31.4464L9.95109 32.3195L11.048 32.3256L12.1418 32.3316L13.2387 30.513C13.9669 29.3026 14.3508 28.6943 14.3812 28.7004C14.4056 28.7034 14.7804 29.3537 15.2191 30.1426C15.6548 30.9345 16.0266 31.5939 16.0418 31.6089C16.0601 31.624 16.5384 31.6662 17.1052 31.7023C18.1106 31.7655 18.1411 31.7655 18.1807 31.7113C18.2051 31.6812 18.4519 31.2928 18.7291 30.8502C19.1679 30.1456 19.2288 30.0342 19.2014 29.974C19.1862 29.9379 18.5737 28.881 17.8425 27.6285C17.1112 26.3759 16.4988 25.3191 16.4805 25.2799C16.4531 25.2197 16.6329 24.9066 18.068 22.54C18.9759 21.0435 19.7041 19.8723 19.7224 19.8783C19.7895 19.8994 22.7297 24.7891 22.7205 24.8554C22.7145 24.8915 22.0411 26.0056 21.2245 27.3304L19.7407 29.7422L20.28 30.6394C20.5755 31.1332 20.8345 31.5517 20.8528 31.5698C20.8772 31.5969 21.1209 31.5879 21.7912 31.5397C22.2879 31.5066 22.6992 31.4704 22.7084 31.4614C22.7175 31.4524 23.1562 30.7358 23.6895 29.8656C24.2196 28.9954 24.6736 28.2638 24.701 28.2397C24.7406 28.2006 24.7528 28.2036 24.7955 28.2668C24.8259 28.3089 25.3561 29.1821 25.9777 30.2089L27.105 32.0787L27.8058 32.0997C28.1897 32.1148 28.6741 32.1208 28.8844 32.1148L29.2652 32.1088L29.8045 31.2356C30.1001 30.7538 30.3438 30.3443 30.3438 30.3203C30.3469 30.2992 29.8594 29.4742 29.2622 28.4866C28.5736 27.3454 28.1897 26.686 28.208 26.668C28.2293 26.6469 28.8112 26.662 29.8198 26.7011C30.6881 26.7372 31.4681 26.7643 31.5565 26.7643H31.7149L32.2573 25.9965C32.5528 25.575 32.8179 25.1986 32.8392 25.1595C32.8819 25.0933 32.8575 25.0421 32.37 24.211L31.8551 23.3318L31.6418 23.3288C31.526 23.3288 30.2341 23.3047 28.7716 23.2777C26.4956 23.2325 26.1087 23.2204 26.0691 23.1813C25.9685 23.0789 23.0313 18.1741 23.0466 18.1349C23.0618 18.0988 23.5188 18.0928 26.1787 18.0988L29.2957 18.1079L30.7186 20.4564L32.1445 22.8049L32.4096 22.814C32.5589 22.82 33.0068 22.814 33.409 22.8049L34.1402 22.7839L34.6826 21.9799C34.9781 21.5403 35.2219 21.161 35.2219 21.1399C35.2219 21.1188 34.838 20.4443 34.3657 19.6434C33.8569 18.7733 33.5156 18.1651 33.5278 18.138C33.543 18.0988 33.8112 18.0928 35.6698 18.0928H37.7965L38.3693 17.1805C38.6862 16.6807 38.9604 16.2471 38.9787 16.217C39.003 16.1839 39.0061 16.1507 38.9848 16.1236C38.9665 16.0995 38.6953 15.7352 38.3754 15.3107L37.7965 14.5429L35.6454 14.5399C33.9605 14.5399 33.4852 14.5308 33.4608 14.5007C33.4394 14.4736 33.6832 14.0491 34.3748 12.914C34.8928 12.0619 35.3316 11.3332 35.3498 11.2971C35.3773 11.2429 35.3072 11.1255 34.7831 10.3607C34.4571 9.88194 34.1646 9.48148 34.1372 9.46944C34.1128 9.46041 33.7015 9.45137 33.2292 9.45137C32.4462 9.45137 32.3639 9.45739 32.3212 9.50256C32.2938 9.53267 31.5656 10.6618 30.7003 12.0107C29.8319 13.3596 29.1007 14.4827 29.0733 14.5007C29.0002 14.5579 23.01 14.5579 22.9856 14.5007C22.9734 14.4646 26.1178 9.23157 26.2245 9.11415C26.2702 9.06296 26.456 9.05995 29.1251 9.05393L31.9769 9.04489L32.4584 8.23796L32.9367 7.42802L32.4766 6.58194C32.2237 6.11524 32.0044 5.72382 31.9952 5.70876C31.983 5.69672 31.1726 5.67263 30.1945 5.65758C29.1799 5.64252 28.406 5.61843 28.3877 5.60037C28.3725 5.58531 28.7655 4.90785 29.4176 3.83294C30.0605 2.77008 30.4657 2.07154 30.4596 2.03842C30.4505 2.01132 30.1945 1.55666 29.8898 1.03577L29.3323 0.0813L29.2378 0.0963547C29.186 0.105388 28.7198 0.150552 28.2019 0.195716C27.6839 0.243891 27.2482 0.295077 27.2299 0.313143C27.2147 0.328198 26.7272 1.12911 26.1452 2.0896C25.5145 3.13139 25.0697 3.83595 25.0453 3.83595C25.0179 3.83595 24.6066 3.18559 24.0277 2.22811L23.0527 0.623271L22.5652 0.644347C22.294 0.656391 21.7943 0.680479 21.45 0.701555L20.8254 0.734676L20.3775 1.47236C20.1277 1.87583 19.9266 2.2251 19.9266 2.24617C19.9266 2.26424 20.5938 3.44754 21.4073 4.87473L22.8881 7.46415L21.3434 10.0174C20.4933 11.4205 19.7803 12.5888 19.7559 12.6129C19.7285 12.64 19.7041 12.646 19.6859 12.6279C19.631 12.5707 16.3312 7.09079 16.3312 7.05466C16.3312 7.03659 16.965 5.98577 17.7359 4.72117C18.5098 3.45657 19.1496 2.39973 19.1557 2.37263C19.174 2.30338 18.1959 0.719621 18.132 0.719621C18.1045 0.719621 17.6719 0.698544 17.1691 0.674457C16.6664 0.650369 16.2246 0.629293 16.188 0.629293C16.1332 0.629293 15.9687 0.87318 15.2161 2.06552C14.7195 2.85739 14.2959 3.5198 14.2777 3.54088C14.2594 3.56196 14.2289 3.56798 14.2106 3.55593C14.1923 3.54389 13.7079 2.75201 13.129 1.79453C12.3795 0.551008 12.0626 0.0511905 12.0199 0.0421576C11.9864 0.0361357 11.4562 0.0240919 10.8377 0.0150591L9.71953 4.3367e-06L9.58547 0.261957Z"/>
</mask>
<path d="M9.58547 0.261957C9.51539 0.406482 9.3143 0.818982 9.14062 1.17729L8.82984 1.83066L9.88711 3.58002C10.4691 4.54353 10.9535 5.35949 10.9596 5.3896C10.9748 5.4438 10.92 5.44681 9.00047 5.45283L7.02305 5.46187L6.52641 6.38021C6.25523 6.88604 6.03586 7.31962 6.045 7.34672C6.05109 7.37382 6.25219 7.72008 6.48984 8.11752L6.92555 8.84015L7.40086 8.85822C7.66289 8.87026 9.04312 8.90639 10.466 8.93951C11.892 8.97564 13.0833 9.00876 13.1198 9.0178C13.1686 9.02683 13.6012 9.71935 14.8352 11.7578C15.7828 13.3204 16.4775 14.4977 16.4623 14.5128C16.447 14.5278 15.0028 14.5369 13.1473 14.5339L9.85969 14.5248L8.40633 12.101C7.60805 10.7672 6.93773 9.65913 6.91945 9.63805C6.89203 9.61095 6.62391 9.60192 5.77383 9.60192H4.66172L4.26562 10.3848C4.0493 10.8153 3.86953 11.1797 3.86953 11.1947C3.86953 11.2098 4.30828 11.9474 4.84453 12.8327C5.71898 14.2779 5.84086 14.4917 5.81344 14.5158C5.80734 14.5218 4.74094 14.5308 3.44297 14.5399L1.08469 14.5549L0.542344 15.41C0.24375 15.8797 0 16.2772 0 16.2922C0 16.3073 0.0304687 16.3585 0.0639844 16.4067C0.100547 16.4548 0.344297 16.8493 0.606328 17.2859L1.08469 18.0777L3.29062 18.0928C5.22844 18.1048 5.49961 18.1139 5.49656 18.153C5.49352 18.1771 5.07914 18.8214 4.57031 19.5832L3.65016 20.9683L4.02187 21.6909C4.22906 22.0883 4.44234 22.4978 4.50023 22.6002L4.60383 22.7869L5.63062 22.7959C6.1943 22.8019 6.67266 22.8019 6.68789 22.7959C6.70617 22.7929 7.38258 21.7391 8.19305 20.4564C9.00351 19.1737 9.68601 18.1199 9.71039 18.1079C9.73476 18.0988 11.243 18.0928 13.0589 18.0928C15.9291 18.0928 16.3648 18.0988 16.38 18.138C16.3952 18.1771 13.4337 23.1241 13.324 23.2415C13.2874 23.2807 12.9127 23.2867 10.3045 23.2867H7.32773L6.80367 24.1448C6.51726 24.6175 6.26437 25.03 6.24609 25.0662C6.21258 25.1234 6.26742 25.2077 6.72445 25.849L7.23633 26.5686L9.23203 26.5837C11.0449 26.5987 11.2277 26.6017 11.2247 26.6469C11.2216 26.674 10.7037 27.5472 10.073 28.5829C9.44226 29.6217 8.92734 30.4949 8.92734 30.522C8.93039 30.5491 9.15891 30.9646 9.44226 31.4464L9.95109 32.3195L11.048 32.3256L12.1418 32.3316L13.2387 30.513C13.9669 29.3026 14.3508 28.6943 14.3812 28.7004C14.4056 28.7034 14.7804 29.3537 15.2191 30.1426C15.6548 30.9345 16.0266 31.5939 16.0418 31.6089C16.0601 31.624 16.5384 31.6662 17.1052 31.7023C18.1106 31.7655 18.1411 31.7655 18.1807 31.7113C18.2051 31.6812 18.4519 31.2928 18.7291 30.8502C19.1679 30.1456 19.2288 30.0342 19.2014 29.974C19.1862 29.9379 18.5737 28.881 17.8425 27.6285C17.1112 26.3759 16.4988 25.3191 16.4805 25.2799C16.4531 25.2197 16.6329 24.9066 18.068 22.54C18.9759 21.0435 19.7041 19.8723 19.7224 19.8783C19.7895 19.8994 22.7297 24.7891 22.7205 24.8554C22.7145 24.8915 22.0411 26.0056 21.2245 27.3304L19.7407 29.7422L20.28 30.6394C20.5755 31.1332 20.8345 31.5517 20.8528 31.5698C20.8772 31.5969 21.1209 31.5879 21.7912 31.5397C22.2879 31.5066 22.6992 31.4704 22.7084 31.4614C22.7175 31.4524 23.1562 30.7358 23.6895 29.8656C24.2196 28.9954 24.6736 28.2638 24.701 28.2397C24.7406 28.2006 24.7528 28.2036 24.7955 28.2668C24.8259 28.3089 25.3561 29.1821 25.9777 30.2089L27.105 32.0787L27.8058 32.0997C28.1897 32.1148 28.6741 32.1208 28.8844 32.1148L29.2652 32.1088L29.8045 31.2356C30.1001 30.7538 30.3438 30.3443 30.3438 30.3203C30.3469 30.2992 29.8594 29.4742 29.2622 28.4866C28.5736 27.3454 28.1897 26.686 28.208 26.668C28.2293 26.6469 28.8112 26.662 29.8198 26.7011C30.6881 26.7372 31.4681 26.7643 31.5565 26.7643H31.7149L32.2573 25.9965C32.5528 25.575 32.8179 25.1986 32.8392 25.1595C32.8819 25.0933 32.8575 25.0421 32.37 24.211L31.8551 23.3318L31.6418 23.3288C31.526 23.3288 30.2341 23.3047 28.7716 23.2777C26.4956 23.2325 26.1087 23.2204 26.0691 23.1813C25.9685 23.0789 23.0313 18.1741 23.0466 18.1349C23.0618 18.0988 23.5188 18.0928 26.1787 18.0988L29.2957 18.1079L30.7186 20.4564L32.1445 22.8049L32.4096 22.814C32.5589 22.82 33.0068 22.814 33.409 22.8049L34.1402 22.7839L34.6826 21.9799C34.9781 21.5403 35.2219 21.161 35.2219 21.1399C35.2219 21.1188 34.838 20.4443 34.3657 19.6434C33.8569 18.7733 33.5156 18.1651 33.5278 18.138C33.543 18.0988 33.8112 18.0928 35.6698 18.0928H37.7965L38.3693 17.1805C38.6862 16.6807 38.9604 16.2471 38.9787 16.217C39.003 16.1839 39.0061 16.1507 38.9848 16.1236C38.9665 16.0995 38.6953 15.7352 38.3754 15.3107L37.7965 14.5429L35.6454 14.5399C33.9605 14.5399 33.4852 14.5308 33.4608 14.5007C33.4394 14.4736 33.6832 14.0491 34.3748 12.914C34.8928 12.0619 35.3316 11.3332 35.3498 11.2971C35.3773 11.2429 35.3072 11.1255 34.7831 10.3607C34.4571 9.88194 34.1646 9.48148 34.1372 9.46944C34.1128 9.46041 33.7015 9.45137 33.2292 9.45137C32.4462 9.45137 32.3639 9.45739 32.3212 9.50256C32.2938 9.53267 31.5656 10.6618 30.7003 12.0107C29.8319 13.3596 29.1007 14.4827 29.0733 14.5007C29.0002 14.5579 23.01 14.5579 22.9856 14.5007C22.9734 14.4646 26.1178 9.23157 26.2245 9.11415C26.2702 9.06296 26.456 9.05995 29.1251 9.05393L31.9769 9.04489L32.4584 8.23796L32.9367 7.42802L32.4766 6.58194C32.2237 6.11524 32.0044 5.72382 31.9952 5.70876C31.983 5.69672 31.1726 5.67263 30.1945 5.65758C29.1799 5.64252 28.406 5.61843 28.3877 5.60037C28.3725 5.58531 28.7655 4.90785 29.4176 3.83294C30.0605 2.77008 30.4657 2.07154 30.4596 2.03842C30.4505 2.01132 30.1945 1.55666 29.8898 1.03577L29.3323 0.0813L29.2378 0.0963547C29.186 0.105388 28.7198 0.150552 28.2019 0.195716C27.6839 0.243891 27.2482 0.295077 27.2299 0.313143C27.2147 0.328198 26.7272 1.12911 26.1452 2.0896C25.5145 3.13139 25.0697 3.83595 25.0453 3.83595C25.0179 3.83595 24.6066 3.18559 24.0277 2.22811L23.0527 0.623271L22.5652 0.644347C22.294 0.656391 21.7943 0.680479 21.45 0.701555L20.8254 0.734676L20.3775 1.47236C20.1277 1.87583 19.9266 2.2251 19.9266 2.24617C19.9266 2.26424 20.5938 3.44754 21.4073 4.87473L22.8881 7.46415L21.3434 10.0174C20.4933 11.4205 19.7803 12.5888 19.7559 12.6129C19.7285 12.64 19.7041 12.646 19.6859 12.6279C19.631 12.5707 16.3312 7.09079 16.3312 7.05466C16.3312 7.03659 16.965 5.98577 17.7359 4.72117C18.5098 3.45657 19.1496 2.39973 19.1557 2.37263C19.174 2.30338 18.1959 0.719621 18.132 0.719621C18.1045 0.719621 17.6719 0.698544 17.1691 0.674457C16.6664 0.650369 16.2246 0.629293 16.188 0.629293C16.1332 0.629293 15.9687 0.87318 15.2161 2.06552C14.7195 2.85739 14.2959 3.5198 14.2777 3.54088C14.2594 3.56196 14.2289 3.56798 14.2106 3.55593C14.1923 3.54389 13.7079 2.75201 13.129 1.79453C12.3795 0.551008 12.0626 0.0511905 12.0199 0.0421576C11.9864 0.0361357 11.4562 0.0240919 10.8377 0.0150591L9.71953 4.3367e-06L9.58547 0.261957Z" fill="white" stroke="#8BE3F7" stroke-width="2" mask="url(#path-1-inside-1_39_45)"/>
</svg>
